<svg xmlns="http://www.w3.org/2000/svg" width="1920" height="1080" viewBox="0 0 1920 1080">
  <defs>
    <style>
      .cls-1 {
        fill: #fff;
        fill-rule: evenodd;
      }
    </style>
  </defs>
  <path id="Minecraft_Creativity_Game_Jam" data-name="Minecraft Creativity Game Jam" class="cls-1" d="M450.327,701h6.067V658.525h6.067v6.068h6.067v6.067H474.6v6.067h6.067V670.66h6.067v-6.067H492.8v-6.068h6.067V701h6.067V646.391h-6.067v6.067H492.8v6.067H486.73v6.068h-6.067v6.067H474.6v-6.067h-6.068v-6.068h-6.067v-6.067h-6.067v-6.067h-6.067V701Zm72.806-48.538v-6.067h-6.067v6.067h6.067Zm0,12.135h-6.067V701h6.067v-36.4Zm18.2,12.134H547.4V670.66h12.135V701H565.6V670.66h-6.067v-6.067H547.4v6.067h-6.067v-6.067h-6.067V701h6.067V676.727ZM577.737,701h18.2v-6.068h6.067v-6.067h-6.067v6.067h-18.2V682.794h24.269V670.66h-6.067v-6.067h-18.2v6.067H571.67v24.268h6.067V701Zm18.2-24.269h-18.2V670.66h18.2v6.067Zm42.47,12.134h-6.067v6.067h-18.2V670.66h18.2v6.067h6.067V670.66h-6.067v-6.067h-18.2v6.067h-6.067v24.268h6.067V701h18.2v-6.068h6.067v-6.067Zm12.134-12.134h6.068V670.66h12.134v-6.067H656.611v6.067h-6.068v-6.067h-6.067V701h6.067V676.727ZM680.879,701h24.268V670.66H699.08v-6.067h-18.2v6.067h18.2v6.067h-18.2v6.067h-6.068v12.134h6.068V701Zm0-6.068V682.794h18.2v12.134h-18.2Zm30.336-24.268h12.134V701h6.067V670.66h12.135v-6.067H729.416V652.458h12.135v-6.067H729.416v6.067h-6.067v12.135H711.215v6.067Zm36.4,0h6.067v24.268h6.067V701h12.135v-6.068H759.752V670.66h12.135v-6.067H759.752v-18.2h-6.067v18.2h-6.067v6.067Zm60.671,24.268h6.067V701h18.2v-6.068h6.068v-6.067h-6.068v6.067h-18.2v-6.067h-6.067V658.525h6.067v-6.067h18.2v6.067h6.068v-6.067h-6.068v-6.067h-18.2v6.067h-6.067v6.067h-6.068v30.336h6.068v6.067Zm42.47-18.2h6.067V670.66H868.96v-6.067H856.826v6.067h-6.067v-6.067h-6.068V701h6.068V676.727ZM881.094,701h18.2v-6.068h6.068v-6.067H899.3v6.067h-18.2V682.794h24.269V670.66H899.3v-6.067h-18.2v6.067h-6.067v24.268h6.067V701Zm18.2-24.269h-18.2V670.66h18.2v6.067ZM917.5,701h24.269V670.66H935.7v-6.067H917.5v6.067h18.2v6.067H917.5v6.067H911.43v12.134H917.5V701Zm0-6.068V682.794h18.2v12.134H917.5Zm30.336-24.268H953.9v24.268h6.067V701H972.1v-6.068H959.967V670.66H972.1v-6.067H959.967v-18.2H953.9v18.2h-6.067v6.067Zm42.47-18.2v-6.067h-6.068v6.067H990.3Zm0,12.135h-6.068V701H990.3v-36.4Zm12.137,12.134h6.06v12.134h6.07V701h6.07V688.861h6.07V676.727h6.06V664.593h-6.06v12.134h-6.07v12.134h-6.07V676.727h-6.07V664.593h-6.06v12.134Zm48.53-24.269v-6.067h-6.06v6.067h6.06Zm0,12.135h-6.06V701h6.06v-36.4Zm12.14,6.067h6.07v24.268h6.06V701h12.14v-6.068h-12.14V670.66h12.14v-6.067h-12.14v-18.2h-6.06v18.2h-6.07v6.067Zm36.4,42.47V719.2h18.2V713.13h6.07V664.593h-6.07v30.335h-18.2V664.593h-6.07v30.335h6.07V701h18.2V713.13h-18.2v-6.067h-6.07v6.067h6.07Zm66.74-60.672h24.27v6.067h6.07v-6.067h-6.07v-6.067h-24.27v6.067h-6.07v6.067h-6.06v30.336h6.06v6.067h6.07V701h18.2v-6.068h6.07V701h6.07V670.66h-18.21v6.067h12.14v12.134h-6.07v6.067h-18.2v-6.067h-6.07V658.525h6.07v-6.067ZM1208.72,701h24.27V670.66h-6.07v-6.067h-18.2v6.067h18.2v6.067h-18.2v6.067h-6.07v12.134h6.07V701Zm0-6.068V682.794h18.2v12.134h-18.2Zm36.4,6.068V670.66h12.14V701h6.06V670.66h12.14V701h6.07V670.66h-6.07v-6.067h-36.41V701h6.07Zm48.54,0h18.2v-6.068h6.07v-6.067h-6.07v6.067h-18.2V682.794h24.27V670.66h-6.07v-6.067h-18.2v6.067h-6.07v24.268h6.07V701Zm18.2-24.269h-18.2V670.66h18.2v6.067Zm42.47,18.2V701h18.2v-6.068h6.07v-6.067h6.07v-42.47h-6.07v42.47h-6.07v6.067h-18.2V682.794h-6.07v12.134h6.07ZM1396.8,701h24.27V670.66H1415v-6.067h-18.2v6.067H1415v6.067h-18.2v6.067h-6.07v12.134h6.07V701Zm0-6.068V682.794H1415v12.134h-18.2ZM1433.2,701V670.66h12.14V701h6.07V670.66h12.13V701h6.07V670.66h-6.07v-6.067h-36.4V701h6.06Z"/>
</svg>
