<svg id="图层_1" data-name="图层 1" xmlns="http://www.w3.org/2000/svg" viewBox="0 0 29.77 32"><defs><style>.cls-1{fill:#fff;}</style></defs><path class="cls-1" d="M5.38,32h0a3.75,3.75,0,0,1-3.75-3.74V5.67A5.7,5.7,0,0,1,5.82.26,5.91,5.91,0,0,1,12.48,2.6l.08.14,3.79,5.5.48-3.45A5.3,5.3,0,0,1,21.46.05a5.59,5.59,0,0,1,6,3.51l.1.26.06.26A8.86,8.86,0,0,0,31.4,8a19.31,19.31,0,0,0-1.1,3.39,19.88,19.88,0,0,0-.55,3.82,8.42,8.42,0,0,1-3.34-1.31,14.42,14.42,0,0,1-2.86-2.55l-.63,5.78A4.8,4.8,0,0,1,14,19L9.12,10.73V28.26A3.75,3.75,0,0,1,5.38,32Z" transform="translate(-1.63 0)"/></svg>